<svg xmlns="http://www.w3.org/2000/svg" viewBox="0 0 128 128" role="img" aria-label="Kzares favicon">
	<rect width="128" height="128" rx="18" fill="#050403" />
	<rect x="10" y="10" width="108" height="108" rx="12" fill="#241c16" stroke="#b6843f" stroke-width="6" />
	<g fill="#050403">
		<rect x="20" y="20" width="12" height="14" rx="3" />
		<rect x="20" y="47" width="12" height="14" rx="3" />
		<rect x="20" y="74" width="12" height="14" rx="3" />
		<rect x="20" y="101" width="12" height="7" rx="2" />
		<rect x="96" y="20" width="12" height="14" rx="3" />
		<rect x="96" y="47" width="12" height="14" rx="3" />
		<rect x="96" y="74" width="12" height="14" rx="3" />
		<rect x="96" y="101" width="12" height="7" rx="2" />
	</g>
	<path
		d="M48 34H62V59L81 34H98L75 63L100 94H82L62 68V94H48V34Z"
		fill="#f4dfb8"
		stroke="#050403"
		stroke-width="4"
		stroke-linejoin="round"
	/>
	<path d="M46 98H84" stroke="#9a3f2f" stroke-width="6" stroke-linecap="round" />
</svg>
